<svg width="208" height="40" viewBox="0 0 208 40" fill="none" xmlns="http://www.w3.org/2000/svg">
<path d="M76.9663 18.9458H73.1709V16.7771H83.5063V18.9458H79.7109V28.2767H76.9663V18.9458ZM86.1066 20.605C86.4227 20.1777 86.8465 19.8546 87.3772 19.6355C87.9193 19.4167 88.5405 19.307 89.2409 19.307V21.6728C88.9475 21.6508 88.7497 21.6398 88.6479 21.6398C87.8911 21.6398 87.2981 21.8479 86.8688 22.2641C86.4395 22.6693 86.2249 23.2826 86.2249 24.104V28.2767H83.5818V19.4384H86.1066V20.605ZM99.0459 19.4384V28.2767H96.538V27.2252C96.1878 27.6084 95.7699 27.9042 95.2842 28.1123C94.7985 28.3094 94.2733 28.4081 93.7084 28.4081C92.5111 28.4081 91.5624 28.074 90.8621 27.406C90.1617 26.738 89.8116 25.7468 89.8116 24.4325V19.4384H92.4547V24.0547C92.4547 25.4784 93.0704 26.1904 94.3015 26.1904C94.934 26.1904 95.4424 25.9933 95.8267 25.5987C96.2105 25.1935 96.4025 24.5969 96.4025 23.8082V19.4384H99.0459ZM103.545 28.4081C102.788 28.4081 102.048 28.3204 101.325 28.1453C100.602 27.9589 100.026 27.7291 99.5968 27.4553L100.478 25.6154C100.885 25.8672 101.376 26.0753 101.952 26.2394C102.528 26.3928 103.093 26.4695 103.646 26.4695C104.765 26.4695 105.324 26.2014 105.324 25.6644C105.324 25.4127 105.171 25.2319 104.867 25.1225C104.561 25.0131 104.093 24.9197 103.46 24.843C102.715 24.7337 102.099 24.6076 101.613 24.4655C101.128 24.3231 100.704 24.071 100.343 23.7098C99.9924 23.3483 99.8173 22.8337 99.8173 22.1654C99.8173 21.6071 99.9811 21.1142 100.309 20.687C100.647 20.2488 101.133 19.9093 101.766 19.6685C102.41 19.4277 103.166 19.307 104.036 19.307C104.68 19.307 105.318 19.3784 105.951 19.5208C106.595 19.6522 107.126 19.8382 107.544 20.079L106.662 21.9026C105.861 21.4647 104.985 21.2456 104.036 21.2456C103.471 21.2456 103.048 21.3223 102.766 21.4754C102.483 21.6288 102.342 21.8259 102.342 22.067C102.342 22.3408 102.495 22.5322 102.799 22.642C103.104 22.7513 103.59 22.8554 104.256 22.9541C105.002 23.0745 105.612 23.2059 106.086 23.3483C106.561 23.4797 106.973 23.7262 107.323 24.0877C107.673 24.4488 107.848 24.9528 107.848 25.5987C107.848 26.1463 107.679 26.6339 107.34 27.0608C107.001 27.488 106.504 27.8222 105.849 28.063C105.205 28.2931 104.437 28.4081 103.545 28.4081ZM114.342 27.8495C114.083 28.0356 113.761 28.178 113.376 28.2767C113.004 28.3641 112.608 28.4081 112.19 28.4081C111.106 28.4081 110.264 28.1397 109.666 27.6031C109.078 27.0665 108.785 26.2777 108.785 25.2376V21.6071H107.379V19.6355H108.785V17.4838H111.428V19.6355H113.698V21.6071H111.428V25.2045C111.428 25.5771 111.524 25.8672 111.716 26.0753C111.919 26.2724 112.202 26.3711 112.563 26.3711C112.981 26.3711 113.337 26.2614 113.631 26.0423L114.342 27.8495ZM136.704 16.7771L132.824 28.2767H129.876L127.267 20.4899L124.573 28.2767H121.641L117.744 16.7771H120.591L123.268 24.8597L126.064 16.7771H128.605L131.316 24.9254L134.078 16.7771H136.704ZM140.032 19.307C141.444 19.307 142.529 19.6355 143.285 20.2928C144.042 20.9388 144.42 21.9189 144.42 23.2332V28.2767H141.947V27.1759C141.45 27.9973 140.524 28.4081 139.168 28.4081C138.468 28.4081 137.858 28.2931 137.338 28.063C136.83 27.8332 136.44 27.5154 136.169 27.1102C135.898 26.705 135.762 26.2451 135.762 25.7301C135.762 24.9091 136.079 24.2628 136.711 23.7919C137.355 23.321 138.343 23.0855 139.676 23.0855H141.777C141.777 22.5269 141.602 22.0997 141.252 21.8042C140.902 21.4974 140.377 21.344 139.676 21.344C139.191 21.344 138.71 21.4207 138.236 21.5741C137.773 21.7165 137.378 21.9136 137.05 22.1654L136.101 20.3748C136.598 20.0353 137.191 19.7725 137.88 19.5865C138.58 19.4 139.298 19.307 140.032 19.307ZM139.829 26.6829C140.281 26.6829 140.682 26.5846 141.032 26.3875C141.382 26.1794 141.631 25.8782 141.777 25.484V24.5802H139.964C138.88 24.5802 138.338 24.9254 138.338 25.6154C138.338 25.9439 138.468 26.2067 138.727 26.4038C138.998 26.5899 139.366 26.6829 139.829 26.6829ZM145.796 16.0874H148.439V28.2767H145.796V16.0874ZM149.876 16.0874H152.519V28.2767H149.876V16.0874ZM162.885 23.8902C162.885 23.9233 162.868 24.1534 162.834 24.5802H155.938C156.062 25.1278 156.356 25.5604 156.819 25.8782C157.283 26.1957 157.858 26.3544 158.548 26.3544C159.022 26.3544 159.44 26.2888 159.801 26.1574C160.174 26.0149 160.519 25.7962 160.835 25.5004L162.241 26.9788C161.383 27.9316 160.129 28.4081 158.48 28.4081C157.452 28.4081 156.543 28.2164 155.752 27.8332C154.961 27.4386 154.351 26.8967 153.922 26.2067C153.493 25.5167 153.278 24.7337 153.278 23.8576C153.278 22.9925 153.487 22.2147 153.905 21.5247C154.334 20.8241 154.916 20.2818 155.65 19.8986C156.396 19.5041 157.226 19.307 158.141 19.307C159.033 19.307 159.841 19.4934 160.564 19.8656C161.287 20.2381 161.852 20.7747 162.258 21.4754C162.676 22.1654 162.885 22.9705 162.885 23.8902ZM158.158 21.2456C157.559 21.2456 157.057 21.4097 156.65 21.7385C156.243 22.067 155.995 22.5159 155.904 23.0855H160.395C160.304 22.5269 160.056 22.0834 159.649 21.7549C159.242 21.4154 158.745 21.2456 158.158 21.2456ZM169.508 27.8495C169.248 28.0356 168.926 28.178 168.542 28.2767C168.169 28.3641 167.774 28.4081 167.356 28.4081C166.272 28.4081 165.43 28.1397 164.831 27.6031C164.244 27.0665 163.95 26.2777 163.95 25.2376V21.6071H162.544V19.6355H163.95V17.4838H166.594V19.6355H168.864V21.6071H166.594V25.2045C166.594 25.5771 166.689 25.8672 166.881 26.0753C167.085 26.2724 167.367 26.3711 167.729 26.3711C168.147 26.3711 168.503 26.2614 168.796 26.0423L169.508 27.8495Z" fill="#3375BB"/>
<path d="M53.8481 5.50537H42.3639C35.8807 5.50537 30.625 10.6009 30.625 16.8866V28.0211C30.625 34.3068 35.8807 39.4023 42.3639 39.4023H53.8481C60.3313 39.4023 65.587 34.3068 65.587 28.0211V16.8866C65.587 10.6009 60.3313 5.50537 53.8481 5.50537Z" fill="white" stroke="#DFE5EC" stroke-width="0.366284"/>
<path d="M31.9604 22.6987C31.9604 13.9998 39.2337 6.94824 48.2057 6.94824C57.1778 6.94824 64.4511 13.9998 64.4511 22.6987C64.4511 31.3975 57.1778 38.4492 48.2057 38.4492C39.2337 38.4492 31.9604 31.3975 31.9604 22.6987Z" fill="white"/>
<path d="M48.2151 13.2853C51.4933 15.9399 55.2529 15.7761 56.3268 15.7761C56.092 30.8726 54.3016 27.8789 48.2151 32.112C42.1287 27.8789 40.3497 30.8726 40.1147 15.7761C41.1776 15.7761 44.937 15.9399 48.2151 13.2853Z" stroke="#3375BB" stroke-width="2.22079" stroke-miterlimit="10" stroke-linecap="round" stroke-linejoin="round"/>
</svg>
